<?xml version="1.0" encoding="utf-8"?>
<!-- Generator: Adobe Illustrator 16.0.4, SVG Export Plug-In . SVG Version: 6.00 Build 0)  -->
<!DOCTYPE svg PUBLIC "-//W3C//DTD SVG 1.1//EN" "http://www.w3.org/Graphics/SVG/1.1/DTD/svg11.dtd">
<svg version="1.1" id="Layer_3" xmlns="http://www.w3.org/2000/svg" xmlns:xlink="http://www.w3.org/1999/xlink" x="0px" y="0px"
	 width="841.889px" height="595.281px" viewBox="0 0 841.889 595.281" enable-background="new 0 0 841.889 595.281"
	 xml:space="preserve">
<linearGradient id="SVGID_1_" gradientUnits="userSpaceOnUse" x1="-199.3782" y1="139.8894" x2="-45.78" y2="139.8894" gradientTransform="matrix(6.4761 0 0 6.4761 1311.7686 -608.2947)">
	<stop  offset="0" style="stop-color:#06763A"/>
	<stop  offset="0.1315" style="stop-color:#0C7B3C"/>
	<stop  offset="0.2873" style="stop-color:#1B8C41"/>
	<stop  offset="0.4778" style="stop-color:#32A544"/>
	<stop  offset="0.6318" style="stop-color:#57AB40"/>
	<stop  offset="0.7734" style="stop-color:#6FB03C"/>
	<stop  offset="0.8969" style="stop-color:#7EB53A"/>
	<stop  offset="1" style="stop-color:#84B539"/>
</linearGradient>
<path fill="url(#SVGID_1_)" d="M775.833,295.247c-13.6-0.647-31.732,1.942-40.799,3.238c7.123,7.771,43.389,6.476,77.713,12.952
	c-9.715,5.828-23.961,7.771-27.848,10.361c3.238,0,13.6,2.591,16.838,1.943c-12.951,7.771,3.238,4.533,9.715,7.123
	c-6.477,2.591-11.01,3.238-18.133,3.886l23.312,5.181c-3.236,0.648-38.209,3.238-49.865,3.238c5.828,0,24.609,11.657,27.848,14.895
	c-3.238,0-7.123-0.647-11.01-0.647c-16.838-1.942-62.818,3.886-68.646,3.886c11.658,5.828,29.143,11.657,40.152,12.305
	c-6.477,1.295-6.477,3.886-11.01,5.181c3.885,0.647,18.133,3.886,20.723,4.533c7.125,2.591,9.715,5.181,14.896,7.771
	c-6.477,0.647-8.42,3.886-17.486,3.238l1.943,4.533c-7.123-1.295-65.408-3.238-74.475-1.942c3.885,4.533,14.895,3.886,22.666,7.123
	c4.533,1.296,8.418,5.182,11.656,7.124c-44.037,4.533-93.254,3.238-137.293,1.942c-35.617-1.295-161.254,0-190.396,0
	c-58.932,0-119.807-0.647-181.978,2.591c-12.305-0.647-67.351,1.942-72.532-1.942c0.648-2.591,4.533-4.533,0-7.124
	c-6.476-1.296-5.181-5.828-7.123-9.066c-3.886-3.238-33.676-11.657-31.086-16.19c-1.942-8.419-5.181-11.01-10.361-16.838
	c31.732-14.247,54.399-14.895,77.713-14.895c-40.151-5.181-125.636-2.591-128.874-3.238c13.6-9.714-12.952-12.305-5.181-20.076
	c-9.066-0.647-9.066-6.476-14.896-7.771v-0.647c5.182-0.647,10.362-2.59,15.543-4.533c28.495-9.066,53.104-14.895,110.741-11.657
	c-59.58-11.656-121.751-0.646-121.751-0.646c25.257-6.477,40.8-9.715,16.838-23.962c30.438-15.543,47.923-21.371,104.913-24.609
	c-34.323,0-82.246-4.533-87.428-9.714c5.829-2.591,14.248-2.591,14.248-2.591c16.838,0,23.961-10.361,4.533-16.19
	c30.438,2.591,28.494-11.009,20.724-14.895c15.542,0.648,11.009-1.942,5.828-3.886c16.19,1.943,22.666-3.237,36.913-3.237
	c-7.771-1.943-18.78-1.296-28.494-1.296c4.533,0,9.066-1.942,13.6-2.591c-7.771-1.295-16.838-1.942-25.257-1.295
	c5.829-1.942,7.124-2.59,15.543-3.238c5.828,0,121.103-3.237,145.712-3.885l-5.829-1.296c2.591-0.647,14.896-0.647,17.485-1.295
	l-2.59-1.296c2.59,0,30.438,0,38.208-0.647c-1.295-0.647-6.476-0.647-7.123-0.647l24.609-1.295
	c15.542-1.296,90.665,1.295,110.741-0.648c-4.533,0-9.066-1.295-14.248-1.295c13.6-0.647,135.998-1.942,135.998-1.942
	c-3.238,0-7.123,0.647-9.715,1.295c49.219,0.647,91.312,1.296,137.293,1.942c0,0-12.951,1.943-16.189,2.591
	c10.361,0,122.396-2.591,119.807,0.647c-3.238,0.648-3.238,1.943-1.295,3.238c-8.418,4.533-27.199,7.124-20.723,13.6
	c0,0,10.361,8.419-3.238,11.01c-0.648,1.942,1.295,2.59,4.533,3.238c2.59-1.943,18.779,4.533,18.779,4.533
	c-2.59,0.647-12.951,0.647-16.189,1.942c7.771,7.771,20.076,12.952,23.961,21.371c-6.475,0.647-17.484,9.066-22.018,9.714
	c12.305,0.647,9.713,3.886,18.133,6.477c-7.771,3.238-12.305,3.885-14.248,9.714c4.533,0.647,11.658-1.296,12.953-3.238
	c-1.943,4.533,13.6,3.886,13.6,3.886c-3.238,1.295-9.715,0.647-14.248,1.943l5.182,2.59c-1.295,0-5.182,0.647-5.828,0.647
	c6.475,1.942,5.828,6.477,8.418,6.477c9.715,1.942,19.428,6.476,19.428,6.476s-14.246,3.238-24.609,1.943
	C784.9,290.066,783.605,294.599,775.833,295.247z"/>
</svg>
