<?xml version="1.0" encoding="utf-8"?>
<!-- Generator: Adobe Illustrator 19.0.0, SVG Export Plug-In . SVG Version: 6.00 Build 0)  -->
<svg version="1.1" id="Layer_2" xmlns="http://www.w3.org/2000/svg" xmlns:xlink="http://www.w3.org/1999/xlink" x="0px" y="0px"
	 viewBox="-234 326.3 141.7 141.7" style="enable-background:new -234 326.3 141.7 141.7;" xml:space="preserve">
<style type="text/css">
	.st0{fill:#D91C5C;}
	.st1{fill:none;}
	.st2{fill:#231F20;}
	.st3{fill:#FFCA05;}
	.st4{fill:#034EA1;}
	.st5{fill:#0DB04B;}
	.st6{fill:#EC1C24;}
</style>
<g>
	<path class="st0" d="M-144.5,433c0,2.5-3.4,4.6-7.8,4.6c-4.9,0-4.8-1.4-6.6-7.5h-9.8c-1.4,6-1.3,7.5-6.1,7.5c-4.2,0-7.1-2-7.1-4.6
		c0-0.4,0.1-0.7,0.2-1.1l9-26.3c0.6-1.7,0.9-3,0.9-3.8c0-1.8-1.2-2.8-1.2-3.5c0-2.3,5.3-4.1,8.1-4.1c4.4,0,8.5,3,10.6,8.9
		c0.5,1.4,1.5,4.4,3.1,9.2l4.4,13.2c1.4,4.1,2,6.1,2,6.2C-144.6,432.4-144.5,432.7-144.5,433z M-160.7,422.5l-3.3-16.1h-0.2
		c-0.6,2.2-3,14.9-3.2,16.1H-160.7z"/>
</g>
<g>
	<g>
		<path class="st1" d="M-181.3,360c-0.4-1.6-1.8-2.7-3.4-2.5c-1.9,0.1-3.1,1.7-3,3.5c0,0.2,0.1,0.3,0.1,0.5c0.4,1.6,1.9,2.7,3.4,2.5
			c0.9-0.1,1.6-0.5,2.2-1.1c0.4-0.4,0.6-0.9,0.7-1.4c0.1-0.3,0.1-0.7,0.1-1C-181.2,360.3-181.3,360.2-181.3,360L-181.3,360z"/>
		<path class="st2" d="M-128.9,398.5c0.2-2.7,0.3-6-0.2-8.3c-0.6-2.4-1.5-8.9-7.3-13.5c-3.8-3.1-7.3-4.3-10.7-4.3
			c-1.2,0-2.4,0.2-3.6,0.4c-0.9-5.6-3.3-8.8-7.1-11.7c-3.9-3.1-9.7-3.4-11.8-3.4c-0.5,0-0.8,0-0.8,0c-3.2,0.2-7.2,1.2-10.1,2.2
			c-0.4-1.8-2.2-3.2-4.2-3.1c-2.2,0.2-3.8,2.1-3.7,4.3c0,0.2,0.1,0.4,0.1,0.6c0.4,1.8,2.2,3.2,4.2,3.1c1.8-0.2,3.2-1.4,3.6-3.1
			c6.2,0.6,8.6,3.7,9.6,6.2c-2.1-1-4.4-1.6-6.7-1.6c-0.2,0-0.3,0-0.5,0c-6.1,0.5-9,2.7-11.5,5.1c-0.1,0.1-0.2,0.2-0.4,0.3l-0.1,0.1
			c-0.3,0.3-0.6,0.6-0.8,0.8c-4,4.4-5.7,10.2-6.3,12.6c-1.9,0-3.6,1.4-4,3.4c-0.3,2.2,1.2,4.2,3.3,4.6c0.2,0,0.4,0,0.6,0
			c1.9,0,3.6-1.4,4-3.4c0.2-1.6-0.5-3.2-1.8-4c1.5-2.2,4.8-4.6,7.7-5.1c0.8-0.1,1.5-0.2,2.1-0.2c0,0,0,0,0.1,0h0.1
			c1.5,0,2.9,0.5,4.8,1.9c1.8,1.3,2.8,3.5,3.4,5.3c-0.9,0-1.9,0-2.8,0c-0.4,0-0.8,0.2-1.1,0.6c-0.5,0.8-0.1,2,0.1,2.6
			c0.1,0.3,0.5,1.2,0.6,1.8c0.3,1.9-0.1,3.6-0.1,3.6c-0.2,0.8,0,1.5,0.4,2.1c0.4,0.6,1.1,0.9,1.9,0.9c0.1,0,0.2,0,0.3,0
			c0,0,2.4-0.2,5.5-0.2c2.9,0,5.4,0.2,7.5,0.5c0.3,0,0.5,0.1,0.8,0.1s0.6,0.1,0.8,0.1c5.8,0.9,12.4,3.7,12.5,3.7
			c0.4,0.1,0.7,0.2,1.1,0.2c1.3,0,2.2-0.9,2.3-2.3c0,0,0.2-1.8,1-3.5c0.3-0.6,0.9-1.3,1.1-1.5c0.5-0.5,1.2-1.5,0.9-2.5
			c-0.1-0.4-0.4-0.8-0.9-0.9c0,0-0.9-0.3-2.3-0.7c2.1-3.5,5.6-4.5,7.5-4.5c0.1,0,0.2,0,0.3,0c2.1,0.2,5,1.7,6.9,4.7
			c1.2,1.8,2,4.2,2.6,6.2c-1.8,0.5-3,2.1-3.1,4c0.1,2.2,1.6,3.9,4.1,3.9c0.9,0,3.7-0.8,3.9-4.1
			C-125.1,400.1-126.9,398.7-128.9,398.5z"/>
	</g>
	<path class="st3" d="M-196.8,385.9c-0.2,0-0.3,0-0.5,0h-0.1c-1.5,0.1-2.9,1.1-3.1,2.7c-0.3,1.8,0.9,3.4,2.7,3.7c0.2,0,0.3,0,0.5,0
		c1.6,0,3-1.2,3.2-2.7c0.1-0.9-0.1-1.7-0.6-2.4c-0.2-0.3-0.6-0.6-0.9-0.9C-196,386.2-196.4,386-196.8,385.9z"/>
</g>
<path class="st4" d="M-164.1,388.4c0.5,0.1,0.9,0.1,1.3,0.2c0.3,0,0.5,0.1,0.7,0.1c0.5,0.1,1,0.2,1.5,0.3c0-2-0.3-4.6-0.9-7.3
	c-0.1-0.3-0.2-0.6-0.3-0.9c0-0.2-0.1-0.3-0.1-0.5c-0.1-0.2-0.1-0.4-0.2-0.6c-0.5-1.4-1-2.7-1.8-4c-1.4-2.3-3.2-4.3-5.3-5.7
	c-0.4-0.3-0.8-0.5-1.2-0.8c-2.2-1.3-4.7-2-7.2-2c-5.6,0.4-7.8,1.6-11.5,4.9c-4.7,4.2-6.3,10.3-7,13c1.6-2.4,5.1-5,8.4-5.6
	c0.7-0.1,1.5-0.2,2.4-0.2c2,0,3.6,0.6,5.6,2.1c2.1,1.6,3.3,4.2,3.9,6.2C-171.3,387.7-167.1,388-164.1,388.4z"/>
<g>
	<g>
		<path class="st5" d="M-148.4,392c2.3-4.2,6.5-5.4,8.7-5.4c0.1,0,0.3,0,0.4,0c2.8,0.2,5.8,2.3,7.7,5.2c0.7,1.2,1.4,2.7,1.9,4.1
			c0-2-0.1-4-0.4-5.5c0-0.2,0-0.5-0.1-0.7c-0.6-2.7-1.8-8.2-6.8-12.2c-3.5-2.7-6.7-4-10.1-4c-1.6,0-3.2,0.3-4.9,0.9
			c-3.4,1-6.7,4.2-8.6,6.3c0.9,3.2,1.2,6.3,1.2,8.5C-155.3,390.1-151.1,391.2-148.4,392z"/>
		<g>
			<path class="st3" d="M-148.9,393c-2.9-0.9-6.6-1.9-10.6-2.7c-0.4-0.1-0.7-0.1-1.1-0.2c-0.2,0-0.5-0.1-0.7-0.1
				c-0.3-0.1-0.7-0.1-1.1-0.2c-0.2-0.1-0.4-0.1-0.6-0.1c-0.2,0-0.3,0-0.5-0.1c-0.3,0-0.5-0.1-0.8-0.1c-4-0.6-8-0.8-11.2-0.9
				c-0.4,0-0.8,0-1.2,0c-1,0-1.9,0-2.6,0c-0.5,0-0.5,0-0.5,0c-0.5,0-0.5,0.8,0,2c0,0,0.5,1.2,0.6,2.1c0.3,2.1-0.2,4-0.2,4
				c-0.3,1,0.3,1.8,1.3,1.8c0.1,0,0.1,0,0.2,0c0,0,2.4-0.2,5.6-0.2c2.4,0,5.1,0.1,7.7,0.5c0.3,0,0.5,0.1,0.8,0.1s0.5,0.1,0.8,0.1
				c6,1,12.7,3.8,12.7,3.8c0.3,0.1,0.5,0.1,0.7,0.1c0.7,0,1.2-0.6,1.3-1.4c0,0,0.2-2,1.1-3.9c0.4-0.9,1.2-1.8,1.2-1.8
				c0.7-0.8,0.9-1.6,0.5-1.7c0,0,0,0-0.5-0.2c-0.6-0.2-1.2-0.4-1.9-0.6C-148.3,393.2-148.6,393.1-148.9,393z"/>
			<path class="st6" d="M-164.2,373.2c0.4,0.6,0.9,1.2,1.2,1.8c0.8,1.4,1.4,2.8,1.9,4.3c2.1-2.2,5.3-5.1,8.7-6.1
				c0.2-0.1,0.4-0.1,0.6-0.2c-0.9-5.6-3.2-8.5-6.7-11.2c-3.5-2.8-8.9-3.1-11.1-3.1c-2.3-0.1-6.9,1.1-9.6,2c3,0.5,5.4,1.6,7.2,3.4
				c1.4,1.4,2.1,3,2.5,4.3C-167.5,369.7-165.7,371.3-164.2,373.2z"/>
		</g>
	</g>
</g>
<path class="st3" d="M-181.3,361.5c-0.1,0.5-0.3,1-0.7,1.4c-0.6,0.6-1.3,1-2.2,1.1c-1.5,0.2-3-0.9-3.4-2.5c0-0.2-0.1-0.3-0.1-0.5
	c-0.1-1.8,1.1-3.4,3-3.5c1.6-0.2,3,0.9,3.4,2.5c0,0,0.1,0.3,0.1,0.5C-181.2,360.8-181.2,361.2-181.3,361.5z"/>
<path class="st3" d="M-126.8,400.2c-0.5-0.5-1.3-0.8-2-0.9c-0.1,0-0.5,0-1,0.1c-1.5,0.4-2.6,1.7-2.5,3.2c0.1,1.8,1.5,3.2,3.4,3.1
	c1.1,0,3.1-1.1,3.1-3.4C-125.8,401.5-126.1,400.8-126.8,400.2z"/>
</svg>
